<svg
   xmlns:dc="http://purl.org/dc/elements/1.1/"
   xmlns:cc="http://creativecommons.org/ns#"
   xmlns:rdf="http://www.w3.org/1999/02/22-rdf-syntax-ns#"
   xmlns:svg="http://www.w3.org/2000/svg"
   xmlns="http://www.w3.org/2000/svg"
   xmlns:sodipodi="http://sodipodi.sourceforge.net/DTD/sodipodi-0.dtd"
   xmlns:inkscape="http://www.inkscape.org/namespaces/inkscape"
   sodipodi:docname="emily in paris.svg"
   inkscape:version="1.0 (4035a4fb49, 2020-05-01)"
   id="svg8"
   version="1.1"
   viewBox="0 0 210.32716 95.994827"
   height="60.994827mm"
   width="132.32716mm">
  <defs
     id="defs2" />
  <sodipodi:namedview
     inkscape:window-maximized="1"
     inkscape:window-y="-8"
     inkscape:window-x="-8"
     inkscape:window-height="657"
     inkscape:window-width="1280"
     showgrid="false"
     inkscape:document-rotation="0"
     inkscape:current-layer="layer1"
     inkscape:document-units="mm"
     inkscape:cy="233.79262"
     inkscape:cx="44.11258"
     inkscape:zoom="0.47265236"
     inkscape:pageshadow="2"
     inkscape:pageopacity="0.0"
     borderopacity="1.0"
     bordercolor="#666666"
     pagecolor="#ffffff"
     id="base" />
  <metadata
     id="metadata5">
    <rdf:RDF>
      <cc:Work
         rdf:about="">
        <dc:format>image/svg+xml</dc:format>
        <dc:type
           rdf:resource="http://purl.org/dc/dcmitype/StillImage" />
        <dc:title></dc:title>
      </cc:Work>
    </rdf:RDF>
  </metadata>
  <g
     transform="translate(-230.98812,-119.01717)"
     id="layer1"
     inkscape:groupmode="layer"
     inkscape:label="Capa 1">
    <path
       id="path24"
       d="m 330.15536,214.50497 c -2.06524,-0.794 -3.4876,-2.57566 -6.95995,-8.71806 -1.67349,-2.96032 -3.7207,-6.41233 -4.54937,-7.67115 -1.45226,-2.20613 -3.08927,-3.95689 -3.69981,-3.95689 -0.39674,0 -0.11795,10.39293 0.31023,11.56471 0.17064,0.467 0.53843,0.92151 0.81731,1.01002 1.39624,0.44315 0.15047,0.65444 -3.85857,0.65444 -2.98317,0 -4.36563,-0.0916 -4.36563,-0.28935 0,-0.15915 0.23064,-0.34967 0.51253,-0.42338 0.28189,-0.0737 0.63907,-0.49706 0.79375,-0.94076 0.38993,-1.11854 0.38993,-36.32031 0,-37.43885 -0.15468,-0.4437 -0.51186,-0.86704 -0.79375,-0.94076 -0.28189,-0.0737 -0.51253,-0.27943 -0.51253,-0.45715 0,-0.50657 9.97225,-0.17 12.03855,0.4063 3.84877,1.07345 7.40899,3.87626 8.96591,7.05848 2.32232,4.74666 1.80007,10.80381 -1.2939,15.00667 -1.60513,2.18041 -3.77378,3.58157 -7.26028,4.69085 -0.25672,0.0817 -0.0832,0.30022 0.52916,0.6663 2.36404,1.41337 4.05219,3.84109 7.43489,10.69207 1.68195,3.40644 2.81706,5.3671 3.55126,6.13402 1.06966,1.11734 1.96358,1.46458 1.96358,0.76275 0,-0.59268 0.73458,-1.03066 1.43414,-0.85508 1.39976,0.35132 0.99355,2.32352 -0.64346,3.12404 -1.21881,0.59602 -2.7282,0.56893 -4.41406,-0.0792 z m -11.01209,-23.28483 c 5.48339,-2.6191 7.70818,-10.43495 4.71097,-16.54996 -1.58525,-3.23429 -4.33497,-5.25301 -7.87913,-5.78448 l -1.24637,-0.18691 v 11.62761 c 0,6.39519 0.0831,11.71074 0.18474,11.81235 0.34957,0.34957 2.59622,-0.13834 4.22979,-0.91861 z m 31.49855,16.40919 c -3.66723,-0.86399 -6.2298,-4.04552 -6.48704,-8.05392 -0.21512,-3.35194 1.13059,-5.28424 3.68007,-5.28424 0.95571,0 1.40663,0.14987 1.92987,0.64143 0.80971,0.76068 0.87771,1.48458 0.1748,1.86077 -1.3157,0.70414 -1.39512,4.29771 -0.14572,6.59327 1.12673,2.07017 2.6794,2.61142 4.63269,1.61493 2.04337,-1.04246 3.16872,-3.67155 3.15847,-7.37902 -0.0109,-3.93204 -1.02283,-5.71313 -6.48054,-11.4059 -5.11337,-5.3336 -6.76965,-8.50723 -6.3809,-12.22658 0.39266,-3.75668 2.47331,-6.11925 6.47945,-7.35735 5.68768,-1.75779 10.59659,1.05283 11.94247,6.8377 0.51786,2.22588 -0.17559,4.38952 -1.71099,5.33845 -1.50659,0.93112 -3.61967,0.55426 -4.27622,-0.76266 -0.27297,-0.54752 -0.22491,-0.69838 0.39166,-1.22925 0.64193,-0.55272 0.70276,-0.77324 0.70224,-2.54568 -5.2e-4,-1.51833 -0.13529,-2.19957 -0.61981,-3.13115 -0.86091,-1.65528 -1.56669,-2.34567 -2.5952,-2.53862 -1.22567,-0.22993 -2.04321,0.0285 -3.14205,0.9933 -1.09649,0.96274 -1.5578,1.93954 -1.80695,3.82612 -0.41651,3.15383 1.09191,6.00791 5.76623,10.91029 3.3967,3.56242 4.62108,5.194 5.88581,7.84328 1.00411,2.10337 1.01046,2.13744 1.01046,5.42396 0,3.06105 -0.0534,3.41588 -0.7171,4.76582 -1.37998,2.8068 -3.87385,4.69622 -6.94891,5.26467 -1.79728,0.33225 -3.03371,0.33235 -4.44279,2.7e-4 z m -90.15266,-0.4736 c 0,-0.12777 0.25321,-0.40044 0.56268,-0.60592 0.37859,-0.25137 0.63312,-0.80297 0.77798,-1.68592 0.28939,-1.76397 0.28483,-34.3334 -0.005,-35.83598 -0.14037,-0.7277 -0.44272,-1.3282 -0.78223,-1.55363 -1.21368,-0.80586 -0.6022,-0.90585 4.67212,-0.76401 4.40582,0.11848 5.51604,0.23265 7.0776,0.72782 3.71986,1.17957 6.03701,2.85047 7.85621,5.66512 1.43733,2.22383 2.0992,4.53351 2.12906,7.42962 0.03,2.91338 -0.37855,4.75436 -1.56144,7.03525 -2.26751,4.37229 -6.09206,6.59079 -11.36212,6.59079 h -2.48567 l 0.0115,4.82865 c 0.0131,5.50109 0.22049,7.03589 1.02257,7.56845 0.30437,0.2021 0.55341,0.47199 0.55341,0.59976 0,0.12777 -1.905,0.23231 -4.23334,0.23231 -2.32833,0 -4.23333,-0.10454 -4.23333,-0.23231 z m 9.40326,-15.25653 c 3.32943,-0.86055 6.09225,-3.61657 7.25709,-7.23921 0.52164,-1.62229 0.589,-2.27942 0.48714,-4.75167 -0.10791,-2.61919 -0.20018,-3.03947 -1.05962,-4.82642 -0.51778,-1.07657 -1.37924,-2.46009 -1.91435,-3.07449 -1.14077,-1.30978 -4.15684,-2.87604 -6.03759,-3.13535 l -1.25677,-0.17327 v 11.804 c 0,13.43678 -0.29076,12.12396 2.5241,11.39641 z m 9.92151,15.2904 c 0.006,-0.10914 0.3879,-0.43656 0.84955,-0.7276 1.08112,-0.68159 1.56063,-2.08421 3.48245,-10.18646 0.81115,-3.41974 2.13214,-8.95614 2.93553,-12.30312 3.46443,-14.43303 3.83442,-16.53646 2.90874,-16.53646 -0.21828,0 -0.39688,-0.1786 -0.39688,-0.39688 0,-0.33763 0.68994,-0.39687 4.62191,-0.39687 3.99966,0 4.6014,0.0534 4.46961,0.39687 -0.0838,0.21828 -0.30327,0.39688 -0.48779,0.39688 -0.50642,0 -0.65735,1.2636 -0.39782,3.33054 0.2207,1.75761 2.87098,17.18758 3.46122,20.15123 0.15215,0.76398 0.38366,1.38906 0.51446,1.38906 0.1308,0 0.39873,-0.55185 0.5954,-1.22634 l 0.35759,-1.22634 0.57248,0.72779 c 1.43024,1.81825 1.20529,4.23434 -0.53011,5.69364 -0.45243,0.38045 -0.44997,0.52825 0.0596,3.57188 0.79563,4.7524 1.35515,6.40985 2.28291,6.76258 1.50318,0.57151 0.50895,0.77804 -3.74549,0.77804 -2.98317,0 -4.36562,-0.0916 -4.36562,-0.28935 0,-0.15915 0.25341,-0.35562 0.56314,-0.43662 0.53657,-0.14032 0.55622,-0.26086 0.41654,-2.55492 -0.0806,-1.32421 -0.28723,-3.15179 -0.45911,-4.0613 -0.37497,-1.98405 -0.22111,-1.95344 -4.49308,-0.89388 -5.45802,1.35372 -7.16288,2.67844 -7.3563,5.71601 -0.0955,1.50011 -0.0545,1.66297 0.45251,1.79555 0.30665,0.0802 0.55755,0.27601 0.55755,0.43516 0,0.19457 -1.12662,0.28935 -3.43959,0.28935 -1.89177,0 -3.43499,-0.0893 -3.42939,-0.19844 z m 8.60886,-9.36781 c 1.44707,-0.97662 4.35858,-2.14255 6.55603,-2.62539 l 1.54903,-0.34037 -0.17333,-1.34077 c -0.22537,-1.74337 -2.70494,-15.68465 -3.15607,-17.74493 -0.19119,-0.87312 -0.4157,-1.4089 -0.49892,-1.19062 -0.0832,0.21828 -1.35392,5.45703 -2.82379,11.64166 -1.46987,6.18464 -2.74393,11.51269 -2.83123,11.84011 -0.20644,0.77421 -0.0954,0.75491 1.37828,-0.23969 z m 45.16754,8.94349 c 0.59296,-0.48532 0.79038,-0.94261 1.00664,-2.33169 0.31995,-2.0551 0.18806,-35.21919 -0.14379,-36.15803 -0.11968,-0.33859 -0.49899,-0.7226 -0.8429,-0.85335 -1.50851,-0.57354 -0.51845,-0.78 3.74034,-0.78 2.98317,0 4.36562,0.0916 4.36562,0.28935 0,0.15915 -0.23235,0.35012 -0.51635,0.42438 -1.03057,0.26951 -1.11157,1.89948 -1.02294,20.58523 0.0463,9.74989 0.18162,17.92371 0.30082,18.16403 0.11921,0.24032 0.44663,0.49706 0.72761,0.57054 0.28097,0.0735 0.51086,0.2638 0.51086,0.42295 0,0.19828 -1.39492,0.28636 -4.43177,0.27984 l -4.43177,-0.01 0.73763,-0.60373 z M 231.38499,192.13752 c 0,-0.0931 0.20836,-0.3216 0.46302,-0.50779 0.429,-0.31365 0.46302,-1.20627 0.46302,-12.14891 v -11.81039 l -0.66145,-0.50823 -0.66146,-0.50823 2.84427,-0.006 c 1.56435,-0.003 2.84427,0.0703 2.84427,0.16339 0,0.0931 -0.20836,0.32162 -0.46302,0.50783 -0.42901,0.3137 -0.46302,1.20664 -0.46302,12.15519 0,10.94855 0.034,11.84149 0.46302,12.15518 0.25466,0.18621 0.46302,0.41474 0.46302,0.50784 0,0.0931 -1.19063,0.16926 -2.64583,0.16926 -1.45521,0 -2.64584,-0.0762 -2.64584,-0.16927 z m 7.14375,0 c 0,-0.0931 0.20836,-0.32162 0.46302,-0.50784 0.42901,-0.31369 0.46302,-1.20663 0.46302,-12.15518 0,-10.94855 -0.034,-11.84149 -0.46302,-12.15518 -0.25466,-0.18622 -0.46302,-0.41475 -0.46302,-0.50784 0,-0.0931 0.98227,-0.16752 2.18281,-0.16539 l 2.18281,0.004 2.91042,7.92845 c 1.60073,4.36064 2.99971,7.93077 3.10886,7.93361 0.10914,0.003 0.19777,-3.00115 0.19696,-6.67556 -0.001,-6.35045 -0.21636,-8.6651 -0.80471,-8.6651 -0.13868,0 -0.25215,-0.11907 -0.25215,-0.26459 0,-0.15569 0.89838,-0.26112 2.18281,-0.25617 2.00536,0.008 2.13979,0.0409 1.65365,0.40822 -0.51542,0.38941 -0.52917,0.70945 -0.52917,12.31598 0,11.04335 0.0339,11.94098 0.46302,12.2548 0.78223,0.57208 0.52897,0.70558 -1.18312,0.62365 l -1.64614,-0.0788 -2.96889,-7.67292 c -1.63289,-4.2201 -3.2249,-8.37029 -3.53779,-9.22263 -0.31289,-0.85234 -0.64714,-1.44766 -0.74278,-1.32292 -0.0956,0.12474 -0.11435,4.12113 -0.0416,8.88086 0.12631,8.26259 0.15623,8.67212 0.66146,9.05356 0.48602,0.36694 0.35118,0.4002 -1.65365,0.40793 -1.20054,0.005 -2.18281,-0.0678 -2.18281,-0.16086 z m 9.525,-32.63906 c 0,-0.14552 0.1744,-0.26458 0.38757,-0.26458 1.04104,0 1.06764,-0.49116 1.06764,-19.71146 0,-19.22031 -0.0266,-19.71146 -1.06764,-19.71146 -0.21317,0 -0.38757,-0.17859 -0.38757,-0.39688 0,-0.34472 1.14199,-0.39687 8.69044,-0.39687 h 8.69043 l -0.3755,1.91823 c -0.43018,2.19754 -0.33179,8.59348 0.15059,9.78958 0.2853,0.70742 0.26884,0.72761 -0.59365,0.72761 -0.48791,0 -1.00452,-0.14883 -1.14803,-0.33073 -0.14351,-0.1819 -0.33697,-1.16417 -0.42991,-2.18282 -0.31083,-3.40665 -1.57681,-6.32315 -3.16514,-7.29163 -0.63836,-0.38924 -1.32943,-0.51183 -2.88954,-0.51258 l -2.05052,-9.9e-4 v 9.12812 9.12813 l 1.12448,-0.001 c 1.67182,-0.002 3.14685,-0.48355 3.3022,-1.07763 0.32852,-1.25623 0.6004,-0.28832 0.6004,2.13745 0,2.63984 -0.17082,3.1689 -0.66486,2.05916 -0.30686,-0.68928 -1.0665,-0.93825 -2.97316,-0.97445 l -1.38906,-0.0264 v 8.20209 8.20208 l 2.05052,-0.001 c 1.56011,-7.9e-4 2.25118,-0.12334 2.88954,-0.51258 1.58094,-0.96399 2.79043,-3.7834 3.16482,-7.37744 0.19109,-1.83448 0.58075,-2.42774 1.59456,-2.42774 0.6417,0 0.65779,0.0407 0.44413,1.12448 -0.28345,1.43771 -0.28828,8.14299 -0.007,9.78958 l 0.21465,1.25677 h -8.61517 c -5.56707,7e-5 -8.61518,-0.0935 -8.61518,-0.26451 z m 20.6375,0.0627 c 0,-0.11101 0.264,-0.31937 0.58667,-0.46302 0.32267,-0.14365 0.66799,-0.55884 0.76738,-0.92264 0.22762,-0.83321 0.23051,-36.09799 0.003,-37.17396 -0.0981,-0.46405 -0.4148,-0.90223 -0.76245,-1.05492 -0.32705,-0.14365 -0.59464,-0.41154 -0.59464,-0.59532 0,-0.25234 0.85985,-0.33413 3.51277,-0.33413 h 3.51277 l 3.56361,12.03854 c 1.95998,6.6212 3.63526,12.03854 3.72284,12.03854 0.15193,0 1.46535,-4.31876 5.45045,-17.92214 l 1.8011,-6.14819 3.50573,-0.003 c 2.81008,-0.003 3.50573,0.0693 3.50573,0.36265 0,0.20131 -0.22877,0.42584 -0.50839,0.49896 -1.09253,0.2857 -1.17072,1.38118 -1.27918,17.92044 -0.11773,17.95245 0.0192,20.39919 1.19549,21.36378 l 0.72437,0.594 -4.44738,0.001 c -2.89787,8.4e-4 -4.39042,-0.0909 -4.28387,-0.26328 0.0899,-0.14552 0.32949,-0.26458 0.53235,-0.26458 0.80189,0 0.91993,-1.97102 0.8953,-14.94896 l -0.0246,-12.96459 -0.65069,1.98438 c -0.73669,2.24663 -3.39341,10.76254 -5.57162,17.85937 -0.80395,2.61938 -1.54322,4.91436 -1.6428,5.09995 -0.15211,0.28349 -2.84214,-8.03343 -7.08366,-21.90099 -0.51185,-1.67349 -1.03697,-3.15581 -1.16693,-3.29406 -0.36617,-0.38951 -0.30392,25.28073 0.0649,26.74527 0.21606,0.85804 0.4777,1.26307 0.92604,1.43352 0.3437,0.13068 0.6249,0.30007 0.6249,0.37643 0,0.0764 -1.54781,0.13884 -3.43958,0.13884 -1.89177,0 -3.43958,-0.0908 -3.43958,-0.20184 z m 31.88229,-0.43575 0.79375,-0.63497 0.073,-18.51066 c 0.0486,-12.32793 -0.0187,-18.75196 -0.20162,-19.23307 -0.15107,-0.39733 -0.51135,-0.78431 -0.80064,-0.85996 -0.28929,-0.0756 -0.52599,-0.30225 -0.52599,-0.50356 0,-0.29685 0.82505,-0.36602 4.36563,-0.36602 3.33984,0 4.36562,0.0785 4.36562,0.33413 0,0.18378 -0.26213,0.45167 -0.5825,0.59532 -0.3311,0.14845 -0.67672,0.63142 -0.80078,1.11899 -0.12005,0.47179 -0.18534,9.08539 -0.14509,19.14132 l 0.0732,18.28351 0.79375,0.63497 0.79375,0.63496 h -4.49792 -4.49792 z m 10.71563,0.43575 c 0,-0.11101 0.264,-0.31937 0.58667,-0.46302 0.32267,-0.14365 0.66799,-0.55884 0.76738,-0.92264 0.22762,-0.83321 0.2305,-36.09799 0.003,-37.17396 -0.0981,-0.46405 -0.4148,-0.90223 -0.76245,-1.05492 -0.32706,-0.14365 -0.59464,-0.41154 -0.59464,-0.59532 0,-0.25562 1.02578,-0.33413 4.36562,-0.33413 2.4011,0 4.36563,0.10537 4.36563,0.23415 0,0.12879 -0.2844,0.4205 -0.632,0.64826 -1.12158,0.73489 -1.22009,2.42233 -1.22009,20.90124 v 17.1101 l 2.05053,-0.001 c 2.48057,-0.001 3.40045,-0.46429 4.43758,-2.23403 0.91868,-1.5676 1.41441,-3.2492 1.62462,-5.51091 0.18778,-2.02041 0.54892,-2.57282 1.68199,-2.57282 0.74702,0 0.75525,0.0159 0.4455,0.8599 -0.36766,1.00173 -0.43298,7.81953 -0.0951,9.92187 l 0.22326,1.38906 h -8.62378 c -4.74309,7e-5 -8.62379,-0.0908 -8.62379,-0.20177 z m 20.90208,-0.0627 c 0,-0.14552 0.18154,-0.26458 0.40343,-0.26458 0.22188,0 0.54046,-0.32743 0.70795,-0.72761 0.41674,-0.9957 0.61342,-11.01651 0.24882,-12.67731 -0.30967,-1.41054 -1.33493,-5.86519 -3.61327,-15.69925 -1.64879,-7.11672 -2.61354,-9.65748 -3.89849,-10.26704 -1.43778,-0.68207 -0.73471,-0.84546 3.63802,-0.84546 3.55515,0 4.36563,0.0684 4.36563,0.36857 0,0.20271 -0.1786,0.4371 -0.39688,0.52086 -0.46621,0.1789 -0.52326,1.46216 -0.12522,2.81648 0.14941,0.50837 1.05058,4.31586 2.0026,8.46109 0.95201,4.14524 1.77947,7.58533 1.83878,7.64464 0.16238,0.16238 0.2134,-0.0588 1.85416,-8.03768 2.21591,-10.77578 2.1665,-10.44697 1.62865,-10.84026 -1.03486,-0.75671 -0.49364,-0.9337 2.8552,-0.9337 3.24235,0 4.09043,0.24452 2.69207,0.77617 -1.28952,0.49027 -2.04013,2.36743 -3.46257,8.65929 -0.52106,2.30482 -1.37102,6.03605 -1.8888,8.29162 -2.02558,8.82399 -1.97091,8.43038 -1.97091,14.18967 0,5.87844 0.28294,8.02048 1.08719,8.2308 0.27517,0.072 0.50031,0.23601 0.50031,0.36456 0,0.12854 -1.905,0.23372 -4.23333,0.23372 -2.64584,0 -4.23334,-0.0992 -4.23334,-0.26458 z"
       style="fill:#fff;stroke-width:0.264583" />
  </g>
</svg>